<svg width="281" height="72" viewBox="0 0 281 72" fill="none" xmlns="http://www.w3.org/2000/svg">
    <path d="M23 20C16.8174 31.0222 15.8662 37.7778 23 52" stroke="#F0F5FF" stroke-width="9" stroke-linecap="round"/>
    <path d="M10 20C3.81739 31.0222 2.86622 37.7778 10 52" stroke="#F0F5FF" stroke-width="9" stroke-linecap="round"/>
    <path d="M66.84 19.016V53H56.184V39.752H46.056V53H35.4V19.016H46.056V31.256H56.184V19.016H66.84ZM84.4984 53.336C81.7784 53.336 79.3304 52.776 77.1544 51.656C74.9784 50.536 73.2664 48.936 72.0184 46.856C70.8024 44.744 70.1944 42.28 70.1944 39.464C70.1944 36.648 70.8024 34.2 72.0184 32.12C73.2664 30.008 74.9784 28.392 77.1544 27.272C79.3304 26.152 81.7784 25.592 84.4984 25.592C87.2184 25.592 89.6664 26.152 91.8424 27.272C94.0184 28.392 95.7144 30.008 96.9304 32.12C98.1784 34.2 98.8024 36.648 98.8024 39.464C98.8024 42.28 98.1784 44.744 96.9304 46.856C95.7144 48.936 94.0184 50.536 91.8424 51.656C89.6664 52.776 87.2184 53.336 84.4984 53.336ZM84.4984 44.12C85.4904 44.12 86.3224 43.736 86.9944 42.968C87.6664 42.168 88.0024 41 88.0024 39.464C88.0024 37.928 87.6664 36.776 86.9944 36.008C86.3224 35.208 85.4904 34.808 84.4984 34.808C83.5064 34.808 82.6744 35.208 82.0024 36.008C81.3304 36.776 80.9944 37.928 80.9944 39.464C80.9944 41 81.3144 42.168 81.9544 42.968C82.6264 43.736 83.4744 44.12 84.4984 44.12ZM138.294 25.736C141.75 25.736 144.422 26.776 146.31 28.856C148.23 30.936 149.19 33.752 149.19 37.304V53H138.582V38.648C138.582 37.496 138.23 36.6 137.526 35.96C136.854 35.288 135.942 34.952 134.79 34.952C133.606 34.952 132.678 35.288 132.006 35.96C131.334 36.6 130.998 37.496 130.998 38.648V53H120.39V38.648C120.39 37.496 120.038 36.6 119.334 35.96C118.662 35.288 117.75 34.952 116.598 34.952C115.414 34.952 114.486 35.288 113.814 35.96C113.142 36.6 112.806 37.496 112.806 38.648V53H102.15V25.928H112.806V29.576C113.574 28.424 114.614 27.496 115.926 26.792C117.27 26.088 118.838 25.736 120.63 25.736C122.582 25.736 124.31 26.168 125.814 27.032C127.318 27.864 128.518 29.048 129.414 30.584C130.406 29.176 131.67 28.024 133.206 27.128C134.742 26.2 136.438 25.736 138.294 25.736ZM180.014 39.224C180.014 39.96 179.966 40.664 179.87 41.336H162.734C162.894 43.672 163.87 44.84 165.662 44.84C166.814 44.84 167.646 44.312 168.158 43.256H179.438C179.054 45.176 178.238 46.904 176.99 48.44C175.774 49.944 174.222 51.144 172.334 52.04C170.478 52.904 168.43 53.336 166.19 53.336C163.502 53.336 161.102 52.776 158.99 51.656C156.91 50.536 155.278 48.936 154.094 46.856C152.942 44.744 152.366 42.28 152.366 39.464C152.366 36.648 152.942 34.2 154.094 32.12C155.278 30.008 156.91 28.392 158.99 27.272C161.102 26.152 163.502 25.592 166.19 25.592C168.878 25.592 171.262 26.152 173.342 27.272C175.454 28.36 177.086 29.928 178.238 31.976C179.422 34.024 180.014 36.44 180.014 39.224ZM169.214 36.68C169.214 35.784 168.926 35.112 168.35 34.664C167.774 34.184 167.054 33.944 166.19 33.944C164.302 33.944 163.198 34.856 162.878 36.68H169.214Z" fill="white"/>
    <path d="M217.608 19.016L206.184 53H192.408L180.984 19.016H192.312L199.32 42.392L206.28 19.016H217.608ZM232.858 53.336C230.138 53.336 227.69 52.776 225.514 51.656C223.338 50.536 221.626 48.936 220.378 46.856C219.162 44.744 218.554 42.28 218.554 39.464C218.554 36.648 219.162 34.2 220.378 32.12C221.626 30.008 223.338 28.392 225.514 27.272C227.69 26.152 230.138 25.592 232.858 25.592C235.578 25.592 238.026 26.152 240.202 27.272C242.378 28.392 244.074 30.008 245.29 32.12C246.538 34.2 247.162 36.648 247.162 39.464C247.162 42.28 246.538 44.744 245.29 46.856C244.074 48.936 242.378 50.536 240.202 51.656C238.026 52.776 235.578 53.336 232.858 53.336ZM232.858 44.12C233.85 44.12 234.682 43.736 235.354 42.968C236.026 42.168 236.362 41 236.362 39.464C236.362 37.928 236.026 36.776 235.354 36.008C234.682 35.208 233.85 34.808 232.858 34.808C231.866 34.808 231.034 35.208 230.362 36.008C229.69 36.776 229.354 37.928 229.354 39.464C229.354 41 229.674 42.168 230.314 42.968C230.986 43.736 231.834 44.12 232.858 44.12ZM268.269 53L263.709 46.904L260.301 53H248.589L257.661 38.744L248.109 25.928H260.013L264.573 32.072L268.029 25.928H279.741L270.381 39.848L280.173 53H268.269Z" fill="#5145CD"/>
    </svg>
    